HIERARCHY
ROOT root
{
	OFFSET 0.000000 0.000000 0.000000
	CHANNELS 6 Xposition Yposition Zposition Zrotation Yrotation Xrotation
	JOINT lhip
	{
		OFFSET 0.058581 -0.082280 -0.017664
		CHANNELS 3 Zrotation Yrotation Xrotation
		JOINT lknee
		{
			OFFSET 0.043451 -0.386469 0.008037
			CHANNELS 3 Zrotation Yrotation Xrotation
			JOINT lankle
			{
				OFFSET -0.014790 -0.426874 -0.037428
				CHANNELS 3 Zrotation Yrotation Xrotation
				JOINT ltoe
				{
					OFFSET 0.041054 -0.060286 0.122042
					CHANNELS 3 Zrotation Yrotation Xrotation
					End Site
					{
						OFFSET 0.000000 0.000000 0.000000
					}
				}
			}
		}
	}
	JOINT rhip
	{
		OFFSET -0.060310 -0.090513 -0.013543
		CHANNELS 3 Zrotation Yrotation Xrotation
		JOINT rknee
		{
			OFFSET -0.043257 -0.383688 -0.004843
			CHANNELS 3 Zrotation Yrotation Xrotation
			JOINT rankle
			{
				OFFSET 0.019056 -0.420046 -0.034562
				CHANNELS 3 Zrotation Yrotation Xrotation
				JOINT rtoe
				{
					OFFSET -0.034840 -0.062106 0.130323
					CHANNELS 3 Zrotation Yrotation Xrotation
					End Site
					{
						OFFSET 0.000000 0.000000 0.000000
					}
				}
			}
		}
	}
	JOINT lowerback
	{
		OFFSET 0.004439 0.124404 -0.038385
		CHANNELS 3 Zrotation Yrotation Xrotation
		JOINT upperback
		{
			OFFSET 0.004488 0.137956 0.026820
			CHANNELS 3 Zrotation Yrotation Xrotation
			JOINT chest
			{
				OFFSET -0.002265 0.056032 0.002855
				CHANNELS 3 Zrotation Yrotation Xrotation
				JOINT lowerneck
				{
					OFFSET -0.013390 0.211636 -0.033468
					CHANNELS 3 Zrotation Yrotation Xrotation
					JOINT upperneck
					{
						OFFSET 0.010113 0.088937 0.050410
						CHANNELS 3 Zrotation Yrotation Xrotation
						End Site
						{
							OFFSET 0.000000 0.000000 0.000000
						}
					}
				}
				JOINT lclavicle
				{
					OFFSET 0.071702 0.114000 -0.018898
					CHANNELS 3 Zrotation Yrotation Xrotation
					JOINT lshoulder
					{
						OFFSET 0.122921 0.045205 -0.019046
						CHANNELS 3 Zrotation Yrotation Xrotation
						JOINT lelbow
						{
							OFFSET 0.255332 -0.015649 -0.022946
							CHANNELS 3 Zrotation Yrotation Xrotation
							JOINT lwrist
							{
								OFFSET 0.265709 0.012698 -0.007375
								CHANNELS 3 Zrotation Yrotation Xrotation
								End Site
								{
									OFFSET 0.000000 0.000000 0.000000
								}
							}
						}
					}
				}
				JOINT rclavicle
				{
					OFFSET -0.082954 0.112472 -0.023707
					CHANNELS 3 Zrotation Yrotation Xrotation
					JOINT rshoulder
					{
						OFFSET -0.113228 0.046853 -0.008472
						CHANNELS 3 Zrotation Yrotation Xrotation
						JOINT relbow
						{
							OFFSET -0.260127 -0.014369 -0.031269
							CHANNELS 3 Zrotation Yrotation Xrotation
							JOINT rwrist
							{
								OFFSET -0.269108 0.006794 -0.006027
								CHANNELS 3 Zrotation Yrotation Xrotation
								End Site
								{
									OFFSET 0.000000 0.000000 0.000000
								}
							}
						}
					}
				}
			}
		}
	}
}
MOTION
Frames: 5
Frame Time: 0.033333
-0.525912 0.191204 0.991937 60.463963 0.999089 107.894686 -7.043149 -0.402168 -19.446468 -6.179280 23.956953 -10.504489 17.473903 33.205369 -16.423262 0.000000 -0.000000 0.000000 8.908017 -1.714251 -6.013608 0.620161 -12.274099 22.969920 4.535861 -17.617702 47.862785 0.000000 -0.000000 0.000000 -11.342744 6.412218 -11.852158 6.314319 -0.831194 8.737321 -0.294893 1.177847 -14.090773 7.265245 3.254794 10.285727 5.653989 7.342932 2.246352 -17.905410 10.104598 -5.841018 -45.379469 0.995204 29.185124 -20.018550 -18.887043 23.918959 -52.545164 3.018041 6.313429 17.191569 -8.301830 -7.354264 51.996234 -5.123064 28.993886 16.291246 3.332780 20.198657 45.050754 -6.615497 -4.307082 
-0.528306 0.191714 0.991610 59.181849 1.130434 108.296545 -7.085809 0.052421 -20.052337 -6.172662 24.502965 -10.600221 17.369152 33.321700 -16.390770 0.000000 -0.000000 0.000000 9.010869 -1.065616 -6.721217 0.018672 -12.035199 23.526839 4.908996 -17.822665 46.656254 0.000000 -0.000000 0.000000 -11.417359 6.719003 -10.835069 5.945971 -0.239010 6.785069 -0.081258 1.393482 -12.881160 7.036134 3.616011 9.597338 6.156254 7.502894 1.936703 -17.891730 9.173234 -6.204828 -44.858555 0.796963 29.704722 -21.561218 -19.072785 26.054593 -52.091880 2.219086 6.273201 17.763487 -7.647417 -7.066031 50.795626 -5.079699 28.825010 17.667964 5.020883 21.340103 44.205312 -6.180292 -4.225011 
-0.527423 0.191851 0.992154 59.111972 1.259804 108.063268 -7.024307 0.064157 -19.640570 -6.101198 24.309060 -10.834839 17.367686 33.523372 -16.304038 0.000000 -0.000000 0.000000 9.215572 -1.760076 -5.853745 0.105469 -11.830056 22.395141 3.889459 -18.098286 46.911857 0.000000 -0.000000 0.000000 -10.983599 6.759285 -10.863539 5.904606 -0.841717 8.169012 -0.223011 1.657347 -13.189578 6.618353 3.937990 9.198719 6.510031 8.281527 1.946631 -18.435835 7.715586 -5.746182 -43.643323 0.662881 29.837122 -23.540886 -20.035330 27.360067 -50.799068 2.302900 6.116452 17.990291 -6.837908 -6.763525 49.586361 -4.977454 28.839974 19.531694 7.095310 22.601090 43.183318 -6.187635 -3.629226 
-0.529864 0.192132 0.992827 57.292753 1.724228 108.693392 -6.549465 0.668619 -20.586816 -6.298322 25.251838 -10.747141 17.325219 33.803284 -16.298893 0.000000 -0.000000 0.000000 9.354700 -1.164119 -6.371836 -0.067652 -11.216509 22.244993 4.192921 -17.851652 45.895916 0.000000 -0.000000 0.000000 -11.093468 7.184106 -10.452870 5.730393 -0.461138 7.462400 -0.071531 1.864372 -12.822094 6.692473 5.097472 8.379689 6.730672 8.591383 1.997210 -18.541523 6.595922 -5.917504 -42.004028 0.974248 30.650009 -26.548760 -22.400111 29.976975 -50.454372 2.021606 5.922603 18.420665 -5.645405 -6.359800 48.143838 -4.806733 29.484061 22.078724 9.872269 25.476933 42.913758 -6.285891 -3.309961 
-0.529171 0.192269 0.992889 56.606877 1.878650 108.840505 -6.520575 0.826512 -20.664225 -6.203736 25.287689 -10.907506 17.451763 34.212831 -16.138952 0.000000 -0.000000 0.000000 9.265742 -1.389287 -6.044422 -0.009960 -10.957801 21.550409 4.170082 -17.967507 45.673993 0.000000 -0.000000 0.000000 -11.127676 7.370352 -10.529881 5.697812 -0.517866 7.716114 -0.014871 2.029075 -12.874440 6.387195 5.240711 8.424375 6.781813 9.346337 1.728807 -18.759269 5.678359 -5.372668 -40.671914 1.043061 30.689934 -28.883898 -24.260526 31.273833 -49.722435 2.162947 5.401561 18.595453 -4.945458 -5.878807 47.227670 -4.576477 29.540860 23.842337 11.148575 26.918198 42.769499 -7.381904 -2.780905 
